<?xml version="1.0" encoding="UTF-8"?>
<!--Generator: Apple Native CoreSVG 232.5-->
<!DOCTYPE svg
PUBLIC "-//W3C//DTD SVG 1.1//EN"
       "http://www.w3.org/Graphics/SVG/1.1/DTD/svg11.dtd">
<svg version="1.1" xmlns="http://www.w3.org/2000/svg" xmlns:xlink="http://www.w3.org/1999/xlink" width="22.2578" height="21.9248">
 <g>
  <rect height="21.9248" opacity="0" width="22.2578" x="0" y="0"/>
  <path d="M10.957 21.9141C16.9512 21.9141 21.9141 16.9404 21.9141 10.957C21.9141 4.96289 16.9404 0 10.9463 0C4.96289 0 0 4.96289 0 10.957C0 16.9404 4.97363 21.9141 10.957 21.9141ZM10.957 20.0879C5.88672 20.0879 1.83691 16.0273 1.83691 10.957C1.83691 5.88672 5.87598 1.82617 10.9463 1.82617C16.0166 1.82617 20.0879 5.88672 20.0879 10.957C20.0879 16.0273 16.0273 20.0879 10.957 20.0879Z" fill="#000000" fill-opacity="0.85"/>
  <path d="M10.957 4.38281C10.7744 4.38281 10.5381 4.45801 10.334 4.68359L5.97266 9.30273C5.72559 9.57129 5.60742 9.80762 5.60742 10.0977C5.60742 10.4844 5.88672 10.7744 6.28418 10.7744L8.6582 10.7744L8.6582 15.6299C8.6582 16.4893 9.13086 16.9834 9.95801 16.9834L11.9453 16.9834C12.7725 16.9834 13.2559 16.4893 13.2559 15.6299L13.2559 10.7744L15.6084 10.7744C15.9951 10.7744 16.3066 10.4844 16.3066 10.0762C16.3066 9.79688 16.1885 9.60352 15.8984 9.30273L11.5908 4.68359C11.376 4.45801 11.1504 4.38281 10.957 4.38281Z" fill="#000000" fill-opacity="0.85"/>
 </g>
</svg>
