<?xml version="1.0" encoding="UTF-8"?>
<!--Generator: Apple Native CoreSVG 232.5-->
<!DOCTYPE svg
PUBLIC "-//W3C//DTD SVG 1.1//EN"
       "http://www.w3.org/Graphics/SVG/1.1/DTD/svg11.dtd">
<svg version="1.1" xmlns="http://www.w3.org/2000/svg" xmlns:xlink="http://www.w3.org/1999/xlink" width="25.6846" height="22.6338">
 <g>
  <rect height="22.6338" opacity="0" width="25.6846" x="0" y="0"/>
  <path d="M8.7334 17.4131L21.2695 17.4131C21.6885 17.4131 22.0537 17.0693 22.0537 16.6074C22.0537 16.1455 21.6885 15.8018 21.2695 15.8018L8.91602 15.8018C8.30371 15.8018 7.92773 15.3721 7.83105 14.7168L6.06934 2.76074C5.96191 1.93359 5.66113 1.51465 4.56543 1.51465L0.794922 1.51465C0.365234 1.51465 0 1.89062 0 2.32031C0 2.76074 0.365234 3.13672 0.794922 3.13672L4.42578 3.13672L6.14453 14.9316C6.37012 16.457 7.17578 17.4131 8.7334 17.4131ZM6.75684 13.5889L21.291 13.5889C22.8594 13.5889 23.665 12.6221 23.8906 11.0859L24.75 5.40332C24.7715 5.26367 24.793 5.0918 24.793 4.99512C24.793 4.47949 24.4062 4.125 23.8154 4.125L5.82227 4.125L5.83301 5.74707L22.9668 5.74707L22.2041 10.8926C22.1182 11.5586 21.7637 11.9775 21.1299 11.9775L6.73535 11.9775ZM9.58203 22.6338C10.5488 22.6338 11.3223 21.8711 11.3223 20.8936C11.3223 19.9268 10.5488 19.1533 9.58203 19.1533C8.60449 19.1533 7.83105 19.9268 7.83105 20.8936C7.83105 21.8711 8.60449 22.6338 9.58203 22.6338ZM19.626 22.6338C20.6035 22.6338 21.377 21.8711 21.377 20.8936C21.377 19.9268 20.6035 19.1533 19.626 19.1533C18.6592 19.1533 17.875 19.9268 17.875 20.8936C17.875 21.8711 18.6592 22.6338 19.626 22.6338Z" fill="#000000" fill-opacity="0.85"/>
 </g>
</svg>
