<?xml version="1.0" encoding="UTF-8"?>
<!--Generator: Apple Native CoreSVG 232.5-->
<!DOCTYPE svg
PUBLIC "-//W3C//DTD SVG 1.1//EN"
       "http://www.w3.org/Graphics/SVG/1.1/DTD/svg11.dtd">
<svg version="1.1" xmlns="http://www.w3.org/2000/svg" xmlns:xlink="http://www.w3.org/1999/xlink" width="21.5273" height="20.3994">
 <g>
  <rect height="20.3994" opacity="0" width="21.5273" x="0" y="0"/>
  <path d="M16.5107 20.3994C19.0781 20.3994 21.1836 18.2832 21.1836 15.7158C21.1836 13.1592 19.0781 11.043 16.5107 11.043C13.9219 11.043 11.8271 13.1592 11.8271 15.7158C11.8271 18.2832 13.9219 20.3994 16.5107 20.3994ZM16.5107 18.7129C14.8135 18.7129 13.5029 17.4023 13.5029 15.7158C13.5029 14.0508 14.8135 12.6865 16.5107 12.6865C18.1865 12.6865 19.5078 14.0508 19.5078 15.7158C19.5078 17.4023 18.1865 18.7129 16.5107 18.7129Z" fill="#000000" fill-opacity="0.85"/>
  <path d="M4.68359 20.3994C7.25098 20.3994 9.36719 18.2832 9.36719 15.7158C9.36719 13.1592 7.25098 11.043 4.68359 11.043C2.09473 11.043 0 13.1592 0 15.7158C0 18.2832 2.09473 20.3994 4.68359 20.3994ZM4.68359 18.7129C2.99707 18.7129 1.67578 17.4023 1.67578 15.7158C1.67578 14.0508 2.99707 12.6865 4.68359 12.6865C6.35938 12.6865 7.68066 14.0508 7.68066 15.7158C7.68066 17.4023 6.35938 18.7129 4.68359 18.7129Z" fill="#000000" fill-opacity="0.85"/>
  <path d="M16.5107 9.35645C19.0781 9.35645 21.1836 7.24023 21.1836 4.67285C21.1836 2.10547 19.0781 0 16.5107 0C13.9219 0 11.8271 2.10547 11.8271 4.67285C11.8271 7.24023 13.9219 9.35645 16.5107 9.35645ZM16.5107 7.65918C14.8135 7.65918 13.5029 6.34863 13.5029 4.67285C13.5029 2.99707 14.8135 1.64355 16.5107 1.64355C18.1865 1.64355 19.5078 2.99707 19.5078 4.67285C19.5078 6.34863 18.1865 7.65918 16.5107 7.65918Z" fill="#000000" fill-opacity="0.85"/>
  <path d="M4.68359 9.35645C7.25098 9.35645 9.36719 7.24023 9.36719 4.67285C9.36719 2.10547 7.25098 0 4.68359 0C2.09473 0 0 2.10547 0 4.67285C0 7.24023 2.09473 9.35645 4.68359 9.35645ZM4.68359 7.65918C2.99707 7.65918 1.67578 6.34863 1.67578 4.67285C1.67578 2.99707 2.99707 1.64355 4.68359 1.64355C6.35938 1.64355 7.68066 2.99707 7.68066 4.67285C7.68066 6.34863 6.35938 7.65918 4.68359 7.65918Z" fill="#000000" fill-opacity="0.85"/>
 </g>
</svg>
