<?xml version="1.0" encoding="UTF-8"?>
<!--Generator: Apple Native CoreSVG 232.5-->
<!DOCTYPE svg
PUBLIC "-//W3C//DTD SVG 1.1//EN"
       "http://www.w3.org/Graphics/SVG/1.1/DTD/svg11.dtd">
<svg version="1.1" xmlns="http://www.w3.org/2000/svg" xmlns:xlink="http://www.w3.org/1999/xlink" width="19.1104" height="19.9053">
 <g>
  <rect height="19.9053" opacity="0" width="19.1104" x="0" y="0"/>
  <path d="M2.63184 19.8945L16.1348 19.8945C17.918 19.8945 18.7666 19.3574 18.7666 18.1758C18.7666 15.3613 15.2109 11.29 9.38867 11.29C3.55566 11.29 0 15.3613 0 18.1758C0 19.3574 0.848633 19.8945 2.63184 19.8945ZM2.12695 18.2725C1.84766 18.2725 1.72949 18.1973 1.72949 17.9717C1.72949 16.1992 4.45801 12.9121 9.38867 12.9121C14.3086 12.9121 17.0371 16.1992 17.0371 17.9717C17.0371 18.1973 16.9297 18.2725 16.6504 18.2725ZM9.38867 9.94727C11.9453 9.94727 14.0293 7.68066 14.0293 4.90918C14.0293 2.15918 11.9561 0 9.38867 0C6.84277 0 4.74805 2.20215 4.74805 4.93066C4.74805 7.69141 6.83203 9.94727 9.38867 9.94727ZM9.38867 8.3252C7.82031 8.3252 6.47754 6.83203 6.47754 4.93066C6.47754 3.06152 7.79883 1.62207 9.38867 1.62207C10.9893 1.62207 12.2998 3.0293 12.2998 4.90918C12.2998 6.81055 10.9678 8.3252 9.38867 8.3252Z" fill="#000000" fill-opacity="0.85"/>
 </g>
</svg>
